HIERARCHY
ROOT Hips
{
	OFFSET 0.000000 0.000000 0.000000 
	CHANNELS 6 Xposition Yposition Zposition Yrotation Zrotation Xrotation 
	JOINT Lumbar
	{
		OFFSET 0.000000 0.000000 0.000000 
		CHANNELS 3 Zrotation Xrotation Yrotation
		JOINT Neck
		{
			OFFSET 0.000000 0.445665 0.000000 
			CHANNELS 3 Zrotation Xrotation Yrotation
			End Site
			{
				OFFSET 0.000000 0.227535 0.000000 
			}
		}
		JOINT RightShoulder
		{
			OFFSET 0.019635 0.377685 0.194865 
			CHANNELS 3 Zrotation Xrotation Yrotation
			JOINT RightElbow
			{
				OFFSET 0.000000 -0.243375 0.000000 
				CHANNELS 2 Zrotation Yrotation
				JOINT RightWrist
				{
					OFFSET 0.000000 -0.264825 0.000000 
					CHANNELS 2 Zrotation Xrotation
					End Site
					{
						OFFSET 0.006600 -0.176220 0.000990 
					}
				}
			}
		}
		JOINT LeftShoulder
		{
			OFFSET 0.019635 0.377685 -0.194865 
			CHANNELS 3 Zrotation Xrotation Yrotation
			JOINT LeftElbow
			{
				OFFSET 0.000000 -0.243375 0.000000 
				CHANNELS 2 Zrotation Yrotation
				JOINT LeftWrist
				{
					OFFSET 0.000000 -0.264825 0.000000 
					CHANNELS 2 Zrotation Xrotation
					End Site
					{
						OFFSET 0.006600 -0.176220 -0.000990 
					}
				}
			}
		}
	}
	JOINT RightHip
	{
		OFFSET 0.052140 -0.069960 0.075570 
		CHANNELS 3 Zrotation Xrotation Yrotation
		JOINT RightKnee
		{
			OFFSET 0.000000 -0.402270 0.000000 
			CHANNELS 1 Zrotation
			JOINT RightAnkle
			{
				OFFSET 0.000000 -0.404085 0.000000 
				CHANNELS 3 Zrotation Xrotation Yrotation
				End Site
				{
					OFFSET 0.204105 -0.089430 0.008415 
				}
			}
		}
	}
	JOINT LeftHip
	{
		OFFSET 0.052140 -0.069960 -0.075570 
		CHANNELS 3 Zrotation Xrotation Yrotation
		JOINT LeftKnee
		{
			OFFSET 0.000000 -0.402270 0.000000 
			CHANNELS 1 Zrotation
			JOINT LeftAnkle
			{
				OFFSET 0.000000 -0.404085 0.000000 
				CHANNELS 3 Zrotation Xrotation Yrotation
				End Site
				{
					OFFSET 0.204105 -0.089430 -0.008415 
				}
			}
		}
	}
}
MOTION
Frames: 28
Frame Time: 0.02
-0.00309 0.00117 0.00701 167.32092 -34.00674 -3.89135 44.75989 2.83215 -8.10728 -14.27585 8.34339 -1.5478 -13.81066 -15.17677 -0.48264 32.20561 86.51895 4.73851 -0.50335 -31.64345 12.6665 -8.88108 47.47622 -93.09734 11.62036 -0.10723 35.74948 -5.71427 -9.33603 -18.19401 -7.56679 -1.9964 -3.27605 38.50454 10.49813 12.62827 -27.52516 -7.81153 3.03889 3.77963
-0.00086 0.00087 0.01023 166.68327 -34.07811 -3.99358 44.59342 2.55483 -8.45461 -14.40739 8.2504 -1.54835 -14.28511 -14.9189 -0.22277 32.87092 86.63871 4.87278 -0.48709 -31.57482 13.26128 -8.41241 47.15912 -93.23754 11.66065 -0.13316 36.50398 -5.89118 -9.45102 -18.77306 -7.65872 -1.95204 -3.25732 38.66915 10.17807 12.12555 -27.52575 -7.86357 3.11915 3.82148
0.00136 0.00057 0.01343 166.04686 -34.14931 -4.09587 44.42748 2.27789 -8.80115 -14.53868 8.15754 -1.5489 -14.75907 -14.66127 0.0362 33.53377 86.75824 5.00679 -0.47085 -31.50554 13.85489 -7.94352 46.84145 -93.37741 11.70081 -0.15903 37.25738 -6.06723 -9.56504 -19.35183 -7.75047 -1.90789 -3.23869 38.83331 9.85922 11.62467 -27.52633 -7.91542 3.19917 3.86321
0.00358 0.00027 0.01664 165.41104 -34.22047 -4.19784 44.26153 2.00134 -9.14746 -14.66984 8.06481 -1.54945 -15.2322 -14.40409 0.29529 34.19698 86.87766 5.14067 -0.45463 -31.43701 14.44796 -7.47603 46.52507 -93.5172 11.74098 -0.18489 38.00978 -6.24357 -9.67959 -19.92937 -7.84213 -1.86367 -3.22002 38.99743 9.54017 11.12354 -27.52692 -7.96729 3.27919 3.90493
0.00581 -3e-05 0.01985 164.77426 -34.29176 -4.29964 44.09505 1.72458 -9.49445 -14.80119 7.97199 -1.55 -15.7055 -14.1469 0.55524 34.86273 86.99728 5.27474 -0.43841 -31.3694 15.04194 -7.00935 46.20985 -93.65727 11.78129 -0.21078 38.76277 -6.42083 -9.79532 -20.50656 -7.93392 -1.81924 -3.20125 39.16197 9.21986 10.62049 -27.52753 -8.01936 3.35945 3.94678
0.00802 -0.00032 0.02304 164.13871 -34.36278 -4.40293 43.93024 1.44731 -9.84001 -14.93232 7.87908 -1.55055 -16.18086 -13.88838 0.81206 35.51941 87.11662 5.40862 -0.42213 -31.29655 15.63471 -6.53587 45.88705 -93.79669 11.8211 -0.23662 39.51695 -6.59429 -9.90573 -21.08855 -8.02558 -1.77571 -3.18291 39.32531 8.90408 10.12421 -27.52805 -8.07074 3.43897 3.98822
0.01026 -0.00063 0.02627 163.50133 -34.43428 -4.50308 43.76226 1.17134 -10.1881 -15.06376 7.78645 -1.55109 -16.65141 -13.63278 1.07512 36.19377 87.23634 5.54274 -0.406 -31.2345 16.22928 -6.07664 45.57984 -93.9373 11.8619 -0.26253 40.26799 -6.77533 -10.02679 -21.66043 -8.11741 -1.73035 -3.1637 39.49092 8.57949 9.61482 -27.52875 -8.12346 3.51988 4.03044
0.01248 -0.00092 0.02946 162.86575 -34.5053 -4.60617 43.59719 0.89421 -10.53378 -15.19489 7.69359 -1.55164 -17.12666 -13.37453 1.33205 36.85154 87.3558 5.67664 -0.38971 -31.16218 16.82218 -5.60418 45.2583 -94.07676 11.90172 -0.28838 41.02177 -6.94914 -10.13787 -22.24128 -8.20906 -1.68676 -3.14533 39.65435 8.26313 9.11758 -27.52926 -8.17494 3.59951 4.07194
0.01466 -0.00121 0.03261 162.23153 -34.57594 -4.71278 43.43569 0.61533 -10.87699 -15.32582 7.60026 -1.5522 -17.60698 -13.11268 1.58304 37.49035 87.47468 5.81033 -0.37328 -31.07836 17.41345 -5.1154 44.91862 -94.21509 11.94064 -0.31419 41.78008 -7.1151 -10.23731 -22.83502 -8.30064 -1.64503 -3.12787 39.81553 7.95633 8.63481 -27.52966 -8.2249 3.67763 4.1126
0.01702 -0.00155 0.03604 161.58692 -34.64937 -4.79895 43.25368 0.34549 -11.23585 -15.45845 7.50904 -1.55273 -18.0561 -12.87045 1.87287 38.24223 87.59611 5.94541 -0.35781 -31.06387 18.01538 -4.72001 44.68142 -94.36076 11.98565 -0.34031 42.51593 -7.32921 -10.40542 -23.36044 -8.39306 -1.59171 -3.1048 39.99091 7.59302 8.06762 -27.53107 -8.28359 3.7646 4.1582
0.01901 -0.00177 0.03885 160.96598 -34.71652 -4.92831 43.11495 0.05733 -11.56074 -15.5871 7.41376 -1.55331 -18.57221 -12.58761 2.07779 38.75302 87.71262 6.07743 -0.34025 -30.90119 18.59389 -4.12817 44.22941 -94.49041 12.01721 -0.36572 43.29666 -7.43986 -10.42763 -24.02605 -8.48344 -1.56339 -3.09383 40.13553 7.34987 7.67928 -27.5301 -8.32389 3.83278 4.19332
0.02002 -0.00168 0.03997 160.39543 -34.76932 -5.17664 43.09598 -0.28787 -11.79886 -15.70802 7.3041 -1.55406 -19.26468 -12.18578 2.07226 38.61661 87.8116 6.20222 -0.31728 -30.34348 19.11493 -2.98773 43.17116 -94.57973 12.0168 -0.38956 44.22244 -7.27963 -10.05723 -25.11147 -8.57029 -1.59953 -3.11398 40.20119 7.43172 7.77998 -27.5246 -8.31311 3.85005 4.19983
0.02063 -0.00147 0.04044 159.85106 -34.8152 -5.46811 43.12029 -0.65004 -12.00116 -15.82427 7.19108 -1.55486 -20.02556 -11.7449 1.97764 38.23564 87.90628 6.32368 -0.29213 -29.63506 19.61091 -1.65277 41.90114 -94.65213 12.00213 -0.41257 45.18889 -7.01364 -9.54135 -26.32982 -8.65464 -1.66137 -3.14657 40.23474 7.63492 8.06023 -27.5164 -8.28405 3.84839 4.19582
0.0214 -0.00131 0.04119 159.30454 -34.86244 -5.7397 43.12414 -1.00022 -12.21632 -15.94066 7.08157 -1.55564 -20.76032 -11.32633 1.90862 37.95692 88.00571 6.446 -0.26776 -28.98767 20.11434 -0.41179 40.73795 -94.73015 11.99061 -0.43581 46.12286 -6.78685 -9.08384 -27.46617 -8.73885 -1.7144 -3.17492 40.2797 7.7859 8.25994 -27.5081 -8.26367 3.8549 4.19648
0.02231 -0.00118 0.04204 158.71804 -34.91748 -6.01308 43.13141 -1.36918 -12.44797 -16.06571 6.9632 -1.55644 -21.47524 -10.88696 1.90085 37.71438 88.0938 6.57131 -0.2443 -28.37043 20.63559 0.8572 39.52626 -94.81759 11.99253 -0.45994 47.11741 -6.59504 -8.64856 -28.69951 -8.82868 -1.75609 -3.19767 40.33891 7.92548 8.45708 -27.50522 -8.24137 3.86296 4.19747
0.02281 -0.00095 0.04251 158.21962 -34.95426 -6.29226 43.14181 -1.70219 -12.6341 -16.17125 6.86308 -1.5572 -22.24645 -10.48351 1.74616 37.33961 88.20387 6.6893 -0.21838 -27.65601 21.11221 2.10889 38.36962 -94.8805 11.96383 -0.48168 47.99363 -6.30808 -8.14526 -29.75537 -8.90589 -1.8266 -3.23459 40.3597 8.11667 8.70019 -27.4906 -8.21912 3.8636 4.19542
0.02228 -0.00041 0.04213 157.97027 -34.94557 -6.58257 43.15012 -1.93899 -12.7268 -16.22714 6.80903 -1.55779 -23.16566 -10.1733 1.19263 36.65146 88.38116 6.79039 -0.18661 -26.69938 21.48464 3.30704 37.38126 -94.88757 11.84779 -0.49995 48.54855 -5.76027 -7.37895 -30.34868 -8.95197 -1.97829 -3.31167 40.29178 8.42787 9.04226 -27.44268 -8.19839 3.84603 4.18627
0.02134 0.00023 0.04138 157.80654 -34.9181 -6.87593 43.16011 -2.13764 -12.77081 -16.26292 6.77437 -1.55834 -24.13664 -9.90368 0.49718 35.8406 88.57979 6.88372 -0.15239 -25.6524 21.81015 4.47263 36.46218 -94.86917 11.70265 -0.51531 48.98026 -5.12445 -6.56848 -30.74825 -8.98506 -2.15687 -3.40195 40.18435 8.78528 9.42128 -27.38332 -8.17894 3.82209 4.17466
0.02056 0.00081 0.04077 157.59535 -34.89713 -7.16448 43.16938 -2.34907 -12.82134 -16.30598 6.7343 -1.55895 -25.07869 -9.6254 -0.1235 35.09087 88.76495 6.97904 -0.11901 -24.65365 22.14931 5.62637 35.53492 -94.85725 11.57492 -0.53006 49.45807 -4.5452 -5.85277 -31.1962 -9.02178 -2.31766 -3.48331 40.08898 9.117 9.77296 -27.33021 -8.16091 3.80262 4.16502
0.01989 0.00146 0.04027 157.42047 -34.88465 -7.46996 43.1799 -2.58049 -12.93539 -16.357 6.68002 -1.5594 -26.04896 -9.30364 -0.79082 34.30856 88.96552 7.08096 -0.0866 -23.61862 22.52195 6.90173 34.50245 -94.86594 11.42889 -0.55289 49.97836 -3.89399 -4.82264 -31.81333 -9.06713 -2.50187 -3.57687 40.0181 9.47344 10.17575 -27.27262 -8.13373 3.77586 4.15144
0.01888 0.00199 0.03945 157.19085 -34.84998 -7.73913 43.18772 -2.7608 -12.90747 -16.38639 6.65964 -1.56016 -26.9681 -9.08359 -1.39336 33.56992 89.13955 7.16706 -0.05173 -22.64062 22.81158 7.9106 33.7076 -94.8263 11.31444 -0.5583 50.38125 -3.371 -4.43129 -32.03401 -9.09258 -2.6446 -3.64868 39.88637 9.78691 10.47814 -27.22161 -8.12623 3.763 4.14561
0.01706 0.00219 0.03791 156.78218 -34.75988 -7.91715 43.18689 -2.81058 -12.48799 -16.36364 6.73099 -1.5618 -27.76433 -9.12687 -1.78134 32.96916 89.2314 7.21358 -0.0099 -21.83439 22.90455 8.21237 33.56009 -94.65624 11.29286 -0.51552 50.48143 -3.24297 -5.88021 -31.17504 -9.05617 -2.65491 -3.65105 39.60377 9.97718 10.49667 -27.19217 -8.17214 3.79019 4.1618
0.01489 0.00226 0.03603 156.3172 -34.64793 -8.05627 43.18325 -2.80987 -11.93024 -16.31924 6.83523 -1.56374 -28.50068 -9.27309 -2.0977 32.42109 89.2964 7.2441 0.03415 -21.09073 22.9118 8.2402 33.64926 -94.43937 11.30455 -0.45552 50.46849 -3.24429 -7.96188 -29.92934 -9.0019 -2.62433 -3.63206 39.26001 10.12071 10.41162 -27.16962 -8.23798 3.83163 4.18591
0.01286 0.00239 0.03426 155.88168 -34.54516 -8.20672 43.18111 -2.83143 -11.44274 -16.28315 6.92257 -1.56552 -29.24449 -9.37691 -2.44859 31.85728 89.37625 7.28046 0.07665 -20.32453 22.94457 8.38136 33.62533 -94.2458 11.30182 -0.40389 50.51358 -3.17372 -9.71178 -28.88094 -8.96266 -2.61994 -3.62694 38.93956 10.28056 10.37142 -27.14361 -8.29529 3.86663 4.20649
0.01094 0.00255 0.0327 155.43045 -34.44476 -8.38483 43.17791 -2.85474 -10.91977 -16.25325 7.01892 -1.5674 -30.07569 -9.46212 -2.80121 31.2506 89.44613 7.32237 0.12153 -19.53085 23.03238 8.5769 33.62551 -94.04171 11.29448 -0.34969 50.529 -3.15378 -11.64724 -27.73403 -8.89447 -2.58512 -3.60508 38.63687 10.46287 10.3417 -27.11878 -8.35064 3.9014 4.2268
0.00868 0.00259 0.03061 155.00046 -34.33467 -8.49514 43.17648 -2.86264 -10.44154 -16.20505 7.10395 -1.56914 -30.70727 -9.61191 -3.12499 30.75212 89.52955 7.34928 0.16195 -18.80962 22.98587 8.58416 33.63274 -93.85007 11.30582 -0.29699 50.57777 -3.06223 -13.34641 -26.70408 -8.88161 -2.60269 -3.61235 38.28291 10.58672 10.26542 -27.09302 -8.41449 3.93993 4.24946
0.00561 0.00231 0.0272 154.61665 -34.20177 -8.43577 43.1787 -2.84251 -10.09526 -16.11597 7.15077 -1.57043 -30.82382 -9.8989 -3.43813 30.50086 89.66161 7.33687 0.18931 -18.28039 22.58921 8.22437 33.58732 -93.69361 11.35402 -0.2509 50.77393 -2.72491 -14.24405 -26.0829 -9.03349 -2.78288 -3.70956 37.80483 10.5604 10.08258 -27.06516 -8.49943 3.98695 4.27768
0.0022 0.0019 0.02326 154.26062 -34.06038 -8.3082 43.18335 -2.80823 -9.80396 -16.00849 7.18489 -1.57156 -30.73652 -10.2503 -3.71293 30.36521 89.80719 7.31038 0.21205 -17.82052 22.06088 7.66705 33.54473 -93.55367 11.42136 -0.20726 51.00296 -2.3144 -14.88103 -25.59539 -9.24017 -3.01558 -3.83592 37.27715 10.47703 9.85713 -27.03574 -8.59177 4.03696 4.30782
